<svg xmlns="http://www.w3.org/2000/svg" viewBox="0 0 124.86 104.18"><defs><style>.cls-1{fill:#bfbfbf;}</style></defs><title>Asset 4</title><g id="Layer_2" data-name="Layer 2"><g id="Layer_1-2" data-name="Layer 1"><path class="cls-1" d="M69.73,34.59v3.09H64v5.75H60.88V37.68H55.13V34.59h5.75V28.84H64v5.75Z"/><path class="cls-1" d="M118.95,0H5.91C2.65,0,0,3.11,0,6.93V88.25a7.35,7.35,0,0,0,2.35,5.54,5.34,5.34,0,0,0,3.56,1.39c.21,0,.43,0,.65,0l37.19-4.75a19.54,19.54,0,0,0,38.19-4.87l37.65-4.8c3-.39,5.27-3.35,5.27-6.89V6.93C124.86,3.11,122.21,0,118.95,0Zm2.91,73.83c0,2-1.16,3.72-2.65,3.91L81.85,82.51a19.54,19.54,0,0,0-39,2.13,18.59,18.59,0,0,0,.21,2.81L6.18,92.16a2.3,2.3,0,0,1-1.84-.62A4.4,4.4,0,0,1,3,88.25V6.93C3,4.8,4.33,3,5.91,3h113c1.58,0,2.91,1.8,2.91,3.93Z"/></g></g></svg>