<svg xmlns="http://www.w3.org/2000/svg" viewBox="0 0 64.5 39.96"><defs><style>.cls-1{fill:#bfbfbf;}</style></defs><title>Asset 2</title><g id="Layer_2" data-name="Layer 2"><g id="Layer_1-2" data-name="Layer 1"><g id="Z6OoGp.tif"><path class="cls-1" d="M0,36.28V3.66c.16-.39.29-.8.47-1.18A4.73,4.73,0,0,1,3.66,0h56.8a15.38,15.38,0,0,1,1.74.68A5.11,5.11,0,0,1,64.5,3.91V36.28c0,.11-.1.22-.14.34A4.49,4.49,0,0,1,59.68,40H4.33a4.34,4.34,0,0,1-2.92-1.21A5.53,5.53,0,0,1,0,36.28ZM18,20a14.21,14.21,0,1,0,28.41-.08A13.93,13.93,0,0,0,32.22,5.8,14.21,14.21,0,0,0,18,20ZM9.66,6.28a2.75,2.75,0,0,0-2.74-2.7A2.72,2.72,0,0,0,4.2,6.24,2.8,2.8,0,0,0,6.61,9,2.84,2.84,0,0,0,9.66,6.28Z"/></g></g></g></svg>