<svg xmlns="http://www.w3.org/2000/svg" viewBox="0 0 63.65 63.65"><defs><style>.cls-1{fill:#bfbfbf;}</style></defs><title>Asset 4</title><g id="Layer_2" data-name="Layer 2"><g id="Layer_1-2" data-name="Layer 1"><path class="cls-1" d="M38.86,46.66l7.8-7.8-3.49-3.49a20.72,20.72,0,0,0,2-4.8H50.1v-11H45.16a20.72,20.72,0,0,0-2-4.8l3.49-3.49-7.8-7.8L35.37,6.93a20.73,20.73,0,0,0-4.8-2V0h-11V4.94a20.72,20.72,0,0,0-4.8,2L11.24,3.43l-7.8,7.8,3.49,3.49a20.72,20.72,0,0,0-2,4.8H0v11H4.94a20.72,20.72,0,0,0,2,4.8L3.43,38.86l7.8,7.8,3.49-3.49a20.71,20.71,0,0,0,4.8,2V50.1h11V45.16a20.72,20.72,0,0,0,4.8-2Z"/><path class="cls-1" d="M63.65,55.33v-4.7H61.52a8.8,8.8,0,0,0-.84-2l1.51-1.51-3.33-3.33-1.51,1.51a8.79,8.79,0,0,0-2-.84V42.3h-4.7v2.14a8.79,8.79,0,0,0-2,.84l-1.51-1.51-3.33,3.33,1.51,1.51a8.8,8.8,0,0,0-.84,2H42.3v4.7h2.14a8.79,8.79,0,0,0,.84,2l-1.51,1.51,3.33,3.33,1.51-1.51a8.79,8.79,0,0,0,2,.84v2.14h4.7V61.52a8.78,8.78,0,0,0,2-.84l1.51,1.51,3.33-3.33-1.51-1.51a8.8,8.8,0,0,0,.84-2Z"/></g></g></svg>