<svg xmlns="http://www.w3.org/2000/svg" viewBox="0 0 21.67 19.93"><defs><style>.cls-1{fill:#bfbfbf;}</style></defs><title>Asset 1</title><g id="Layer_2" data-name="Layer 2"><g id="Layer_1-2" data-name="Layer 1"><path class="cls-1" d="M10.86,2.6a6.56,6.56,0,0,1,4-2.5,5.94,5.94,0,0,1,6.7,4.78,7.81,7.81,0,0,1-2.52,7c-1.36,1.38-2.86,2.63-4.22,4-1.1,1.11-2.11,2.32-3.15,3.5-.63.71-1,.73-1.6,0a63.43,63.43,0,0,0-6.86-6.93A9.33,9.33,0,0,1,.08,7,6,6,0,0,1,3.2.69a5.71,5.71,0,0,1,6.87,1.08C10.33,2,10.58,2.31,10.86,2.6Z"/></g></g></svg>