<svg xmlns="http://www.w3.org/2000/svg" viewBox="0 0 45.49 50.27"><defs><style>.cls-1{fill:#f26748;}</style></defs><title>Asset 1</title><g id="Layer_2" data-name="Layer 2"><g id="Layer_1-2" data-name="Layer 1"><path class="cls-1" d="M44,23.42H41V47.86a2.41,2.41,0,0,1-2.41,2.41H31.84a2.57,2.57,0,0,1-2.57-2.57V37a2.47,2.47,0,0,0-2.47-2.47H18.7A2.47,2.47,0,0,0,16.22,37V47.69a2.57,2.57,0,0,1-2.57,2.57H6.94a2.41,2.41,0,0,1-2.41-2.41V23.42H1.44A1.45,1.45,0,0,1,.42,21l20-20a3.32,3.32,0,0,1,4.68,0L38,13.85,45.07,21A1.45,1.45,0,0,1,44,23.42Z"/></g></g></svg>