<svg xmlns="http://www.w3.org/2000/svg" viewBox="0 0 156.21 104.75"><defs><style>.cls-1{fill:#ffffff;}</style></defs><title>Asset 4</title><g id="Layer_2" data-name="Layer 2"><g id="Layer_1-2" data-name="Layer 1"><path class="cls-1" d="M39.48,104.75a1.51,1.51,0,0,1-.92-1.6c0-5.06,0-10.13,0-15.19,0-1.14.41-1.55,1.56-1.56s2.24,0,3.36,0c.37,0,.62.05.58.49.76-.14,1.48-.3,2.21-.39a8.15,8.15,0,0,1,5.58,1.38,1.59,1.59,0,0,0,2,0,8.39,8.39,0,0,1,12.94,5.68,9.28,9.28,0,0,1,.12,1.58c0,2.67,0,5.34,0,8a1.54,1.54,0,0,1-.91,1.61H62.22a1.51,1.51,0,0,1-.87-1.56c0-2.73,0-5.45,0-8.18a3.06,3.06,0,0,0-1.94-3,3,3,0,0,0-3.93,2.84c0,2.73,0,5.45,0,8.18a1.75,1.75,0,0,1-.83,1.72H50.79A1.68,1.68,0,0,1,50,103c0-2.74,0-5.49,0-8.23A2.91,2.91,0,0,0,46,92.05a3.24,3.24,0,0,0-2,3c0,2.71,0,5.41,0,8.12a1.53,1.53,0,0,1-.84,1.58Z"/><path class="cls-1" d="M70.47,104.75a1.65,1.65,0,0,1-.84-1.65c0-5,0-10.09,0-15.13,0-1.15.4-1.56,1.54-1.57H75l.12.49a.72.72,0,0,0,.17,0,8.89,8.89,0,0,1,8,1.19A1.21,1.21,0,0,0,84.74,88a8.33,8.33,0,0,1,11.9,2.47A8,8,0,0,1,97.93,95q-.05,4.09,0,8.18a1.55,1.55,0,0,1-.84,1.58H93.33a1.5,1.5,0,0,1-.92-1.59c0-2.86,0-5.73,0-8.59a2.85,2.85,0,0,0-2.21-2.64,3,3,0,0,0-3.59,2.92c0,2.77,0,5.53,0,8.3a1.54,1.54,0,0,1-.91,1.61H81.9a1.51,1.51,0,0,1-.87-1.56c0-2.74,0-5.49,0-8.23a2.94,2.94,0,1,0-5.87-.1c0,2.73,0,5.45,0,8.18a1.75,1.75,0,0,1-.83,1.72Z"/><path class="cls-1" d="M123,104.75a1.53,1.53,0,0,1-.84-1.58c0-5.12,0-10.24,0-15.37,0-.91.36-1.37,1.21-1.39,1.37,0,2.74,0,4.15,0l.1.54a8.63,8.63,0,0,1,5-.27,8.53,8.53,0,0,1,6.44,8.38c0,2.71,0,5.42,0,8.13a1.53,1.53,0,0,1-.87,1.57h-3.77a1.54,1.54,0,0,1-.92-1.61c0-2.76,0-5.53,0-8.29a2.85,2.85,0,0,0-1.15-2.39,2.69,2.69,0,0,0-3-.29,2.93,2.93,0,0,0-1.7,2.75q0,4.12,0,8.23a1.51,1.51,0,0,1-.92,1.6Z"/><path class="cls-1" d="M0,94.38a21.25,21.25,0,0,1,1-2.8,8.75,8.75,0,0,1,7.61-5.12,9,9,0,0,1,5.92,1.7,1.09,1.09,0,0,1,.21,1.8q-1.06,1.11-2.17,2.16a1.13,1.13,0,0,1-1.55.15,3.77,3.77,0,0,0-5,5.36,3.45,3.45,0,0,0,5.29.85l.33-.26,1.93,1.86c.34.33.68.65,1,1a1.12,1.12,0,0,1-.16,1.85A9.07,9.07,0,0,1,.25,97.75l-.25-1Q0,95.56,0,94.38Z"/><path class="cls-1" d="M73.3,9.92A10,10,0,1,1,83.37,20,10,10,0,0,1,73.3,9.92Z"/><path class="cls-1" d="M56.13,37.44a10,10,0,1,1-10,10.19A10,10,0,0,1,56.13,37.44Z"/><path class="cls-1" d="M66.1,18.84a10,10,0,1,1-9.89-10A10,10,0,0,1,66.1,18.84Z"/><path class="cls-1" d="M100,43.12a10,10,0,1,1,.08-20A10.09,10.09,0,0,1,107,25.89a10,10,0,0,1-7,17.24Z"/><path class="cls-1" d="M83.21,48.9a6.56,6.56,0,0,1,4-2.5,5.94,5.94,0,0,1,6.7,4.78,7.81,7.81,0,0,1-2.52,7c-1.36,1.38-2.86,2.63-4.22,4-1.1,1.11-2.11,2.32-3.15,3.5-.63.71-1,.73-1.6,0a63.43,63.43,0,0,0-6.86-6.93,9.33,9.33,0,0,1-3.14-5.51A6,6,0,0,1,75.55,47a5.71,5.71,0,0,1,6.87,1.08C82.67,48.33,82.92,48.6,83.21,48.9Z"/><path class="cls-1" d="M110.1,104.63a9.1,9.1,0,1,1,9.14-9.06A9,9,0,0,1,110.1,104.63Zm0-12.75a3.67,3.67,0,1,0,3.69,3.64A3.69,3.69,0,0,0,110.1,91.88Z"/><path class="cls-1" d="M17.49,95.57a9.11,9.11,0,1,1,8.91,9.07A9,9,0,0,1,17.49,95.57Zm12.79-.05a3.71,3.71,0,0,0-7.43,0,3.71,3.71,0,0,0,7.43,0Z"/><path class="cls-1" d="M143,104.34l.69-5.33c1,.06,2,.14,2.95.18s1.69,0,2.53,0c.36,0,.7-.05.7-.51s-.34-.55-.72-.56a7.24,7.24,0,0,1-5.76-2.69,5.4,5.4,0,0,1,2-8.13,7.43,7.43,0,0,1,3.78-.94l5.81.24c.13,0,.26,0,.46.07l-.67,5.17h-3.18c-.8,0-1.61,0-2.41-.06-.37,0-.63.16-.63.53s.31.43.63.45a7.6,7.6,0,0,1,5.2,2,5.36,5.36,0,0,1-1,8.66,9.28,9.28,0,0,1-5.26,1.18c-1.57-.05-3.13-.14-4.7-.21Z"/></g></g></svg>