<svg xmlns="http://www.w3.org/2000/svg" viewBox="0 0 187.3 23"><defs><style>.cls-1{fill:#f0764e;}</style></defs><title>Asset 1</title><g id="Layer_2" data-name="Layer 2"><g id="Layer_1-2" data-name="Layer 1"><path class="cls-1" d="M11.1,22.7a12.49,12.49,0,0,1-4.2-.8,10.12,10.12,0,0,1-3.7-2.5A9.85,9.85,0,0,1,.8,15.7,12.49,12.49,0,0,1,0,11.5,12.49,12.49,0,0,1,.8,7.3,11.23,11.23,0,0,1,3.2,3.6,9.85,9.85,0,0,1,6.9,1.2,12.49,12.49,0,0,1,11.1.4a12,12,0,0,1,4.2.8A11.23,11.23,0,0,1,19,3.6L15.2,7.3A5.86,5.86,0,0,0,13.3,6a5.7,5.7,0,0,0-2.2-.4A5.38,5.38,0,0,0,8.9,6,5,5,0,0,0,7,7.3,5.86,5.86,0,0,0,5.7,9.2a5.7,5.7,0,0,0-.4,2.2,5.38,5.38,0,0,0,.4,2.2A5,5,0,0,0,7,15.5a5.86,5.86,0,0,0,1.9,1.3,5.7,5.7,0,0,0,2.2.4,5.38,5.38,0,0,0,2.2-.4,5,5,0,0,0,1.9-1.3L19,19.2a12.72,12.72,0,0,1-3.7,2.5A8.12,8.12,0,0,1,11.1,22.7Z"/><path class="cls-1" d="M31.8,22.7a10.36,10.36,0,0,1-4.3-.9,12.59,12.59,0,0,1-3.6-2.4,11.35,11.35,0,0,1-2.4-3.6,10.7,10.7,0,0,1-.9-4.3,11.17,11.17,0,0,1,.9-4.4,11,11,0,0,1,6-6A10.7,10.7,0,0,1,31.8.2a11.17,11.17,0,0,1,4.4.9,11,11,0,0,1,6,6,10.82,10.82,0,0,1,.9,4.4,10.36,10.36,0,0,1-.9,4.3,12.59,12.59,0,0,1-2.4,3.6,10.53,10.53,0,0,1-3.7,2.5A12.17,12.17,0,0,1,31.8,22.7Zm0-17a5.93,5.93,0,0,0-2.3.5,7.61,7.61,0,0,0-1.9,1.2,6.15,6.15,0,0,0-1.2,1.9,5.93,5.93,0,0,0-.5,2.3,5.93,5.93,0,0,0,.5,2.3,7.61,7.61,0,0,0,1.2,1.9A6.15,6.15,0,0,0,29.5,17a5.54,5.54,0,0,0,4.6,0A6.15,6.15,0,0,0,36,15.8a6.41,6.41,0,0,0,1.3-1.9,5.93,5.93,0,0,0,.5-2.3,5.93,5.93,0,0,0-.5-2.3A5.86,5.86,0,0,0,36,7.4a5.54,5.54,0,0,0-1.9-1.2A6.35,6.35,0,0,0,31.8,5.7Z"/><path class="cls-1" d="M56.8.3a9,9,0,0,1,4,.9A10.45,10.45,0,0,1,64,3.5a9.79,9.79,0,0,1,3.3-2.3,9,9,0,0,1,4-.9,10.06,10.06,0,0,1,3.9.8,9.45,9.45,0,0,1,3.1,2.1,9.45,9.45,0,0,1,2.1,3.1,10.06,10.06,0,0,1,.8,3.9V22.7H75.9V10.3a3.92,3.92,0,0,0-.4-1.8,4.92,4.92,0,0,0-1-1.5A5.6,5.6,0,0,0,73,6a5.84,5.84,0,0,0-1.8-.4,5.66,5.66,0,0,0-1.8.3,4.19,4.19,0,0,0-1.4.9,7.1,7.1,0,0,0-1,1.4,4.71,4.71,0,0,0-.4,1.7V22.8H61.3V10.1a4.71,4.71,0,0,0-.4-1.7,7.1,7.1,0,0,0-1-1.4,4.19,4.19,0,0,0-1.4-.9,4.67,4.67,0,0,0-1.7-.3,3.92,3.92,0,0,0-1.8.4,4.92,4.92,0,0,0-1.5,1,5.6,5.6,0,0,0-1,1.5,5.26,5.26,0,0,0-.4,1.8V23H46.8V.3h5.3V1.5A8.26,8.26,0,0,1,54.3.7,7.27,7.27,0,0,1,56.8.3Z"/><path class="cls-1" d="M95,.3a9,9,0,0,1,4,.9,10.45,10.45,0,0,1,3.2,2.3,9.79,9.79,0,0,1,3.3-2.3,9,9,0,0,1,4-.9,10.06,10.06,0,0,1,3.9.8,9.45,9.45,0,0,1,3.1,2.1,9.45,9.45,0,0,1,2.1,3.1,10.06,10.06,0,0,1,.8,3.9V22.7h-5.3V10.3a3.92,3.92,0,0,0-.4-1.8,4.92,4.92,0,0,0-1-1.5,5.6,5.6,0,0,0-1.5-1,5.84,5.84,0,0,0-1.8-.4,5.66,5.66,0,0,0-1.8.3,4.19,4.19,0,0,0-1.4.9,7.1,7.1,0,0,0-1,1.4,4.71,4.71,0,0,0-.4,1.7V22.8H99.5V10.1a4.71,4.71,0,0,0-.4-1.7,7.1,7.1,0,0,0-1-1.4,4.19,4.19,0,0,0-1.4-.9A4.67,4.67,0,0,0,95,5.8a3.92,3.92,0,0,0-1.8.4,4.92,4.92,0,0,0-1.5,1,5.6,5.6,0,0,0-1,1.5,5.26,5.26,0,0,0-.4,1.8V23H85.1V.3h5.3V1.5A8.26,8.26,0,0,1,92.6.7,6.72,6.72,0,0,1,95,.3Z"/><path class="cls-1" d="M134.5,22.7a10.36,10.36,0,0,1-4.3-.9,12.59,12.59,0,0,1-3.6-2.4,9.9,9.9,0,0,1-2.4-3.6,10.7,10.7,0,0,1-.9-4.3,11.17,11.17,0,0,1,.9-4.4,11,11,0,0,1,6-6,10.7,10.7,0,0,1,4.3-.9,11.17,11.17,0,0,1,4.4.9,11,11,0,0,1,6,6,10.82,10.82,0,0,1,.9,4.4,10.36,10.36,0,0,1-.9,4.3,12.59,12.59,0,0,1-2.4,3.6,9.9,9.9,0,0,1-3.6,2.4A10.82,10.82,0,0,1,134.5,22.7Zm0-17a5.93,5.93,0,0,0-2.3.5,7.61,7.61,0,0,0-1.9,1.2,6.15,6.15,0,0,0-1.2,1.9,5.93,5.93,0,0,0-.5,2.3,5.93,5.93,0,0,0,.5,2.3,7.61,7.61,0,0,0,1.2,1.9,6.15,6.15,0,0,0,1.9,1.2,5.54,5.54,0,0,0,4.6,0,7.61,7.61,0,0,0,1.9-1.2,6.41,6.41,0,0,0,1.3-1.9,5.93,5.93,0,0,0,.5-2.3,5.93,5.93,0,0,0-.5-2.3,5.86,5.86,0,0,0-1.3-1.9,6.15,6.15,0,0,0-1.9-1.2A5.93,5.93,0,0,0,134.5,5.7Z"/><path class="cls-1" d="M169.5,22.7h-5.3V10.3a3.92,3.92,0,0,0-.4-1.8,4.92,4.92,0,0,0-1-1.5,5.6,5.6,0,0,0-1.5-1,5.84,5.84,0,0,0-1.8-.4,3.92,3.92,0,0,0-1.8.4,4.92,4.92,0,0,0-1.5,1,5.6,5.6,0,0,0-1,1.5,5.26,5.26,0,0,0-.4,1.8V22.8h-5.3V.3h5.3V1.5A8.26,8.26,0,0,1,157,.7a9.86,9.86,0,0,1,2.4-.3,10.06,10.06,0,0,1,3.9.8,9.45,9.45,0,0,1,3.1,2.1,9.45,9.45,0,0,1,2.1,3.1,10.06,10.06,0,0,1,.8,3.9V22.7Z"/><path class="cls-1" d="M180.2,22.7c-1.3,0-2.4,0-3.5-.1a15.74,15.74,0,0,1-2.5-.2l.8-5.3a9.23,9.23,0,0,0,1.9.1h3.3a2.08,2.08,0,0,0,1.2-.5,1.61,1.61,0,0,0,.5-1.1,1.88,1.88,0,0,0-.2-.8c-.2-.2-.3-.4-.6-.5l-.6-.3a1.09,1.09,0,0,0-.5-.1,8.28,8.28,0,0,1-2.7-.7,8,8,0,0,1-2.1-1.5,7.71,7.71,0,0,1-1.4-2.1,7.08,7.08,0,0,1-.5-2.6,6,6,0,0,1,.6-2.7,8.55,8.55,0,0,1,1.5-2.2A8.55,8.55,0,0,1,177.6.6a6,6,0,0,1,2.7-.6c1.3,0,2.4,0,3.5.1s1.9.1,2.5.2l-.8,5.3a9.23,9.23,0,0,0-1.9-.1h-3.3a1.72,1.72,0,0,0-1.6,1.6,1.88,1.88,0,0,0,.2.8c.2.2.3.4.6.5l.6.3a4.33,4.33,0,0,1,.5.1,7.67,7.67,0,0,1,2.7.7,8,8,0,0,1,2.1,1.5,7.71,7.71,0,0,1,1.4,2.1,7,7,0,0,1,.5,2.5,6,6,0,0,1-.6,2.7,8.55,8.55,0,0,1-1.5,2.2A8.55,8.55,0,0,1,183,22,6.44,6.44,0,0,1,180.2,22.7Z"/></g></g></svg>