<svg xmlns="http://www.w3.org/2000/svg" viewBox="0 0 48.12 48.04"><defs><style>.cls-1{fill:#bfbfbf;}</style></defs><title>Asset 1</title><g id="Layer_2" data-name="Layer 2"><g id="Layer_1-2" data-name="Layer 1"><path class="cls-1" d="M39.78,0A5.78,5.78,0,0,1,42.5,1.82c1.49,1.54,3,3,4.54,4.56a3.33,3.33,0,0,1,0,4.9c-1.64,1.67-3.3,3.31-5,5C35,23.36,27.83,30.44,20.77,37.6a3.83,3.83,0,0,1-5.72,0C13.5,36,11.88,34.41,10.3,32.82a3.62,3.62,0,0,1,0-5.4Q23.2,14.51,36.1,1.6A5.29,5.29,0,0,1,38.49,0Z"/><path class="cls-1" d="M0,46.29c0-.1.07-.35.16-.58,1.15-3.31,2.36-6.61,3.43-9.94a1.57,1.57,0,0,1,2.84-.64c2.07,2.17,4.23,4.26,6.35,6.38a4.53,4.53,0,0,1,.44.47,1.43,1.43,0,0,1-.66,2.33c-1,.38-2.06.72-3.09,1.08C7,46.23,4.52,47,2.07,47.94A1.57,1.57,0,0,1,0,46.29Z"/></g></g></svg>