<svg xmlns="http://www.w3.org/2000/svg" viewBox="0 0 46.91 46.74"><defs><style>.cls-1{fill:#bfbfbf;}</style></defs><title>Asset 3</title><g id="Layer_2" data-name="Layer 2"><g id="Layer_1-2" data-name="Layer 1"><g id="a0lHuf.tif"><path class="cls-1" d="M16.53,0h3c1.64.41,3.33.69,4.92,1.24A17.88,17.88,0,0,1,36,19.41,18.12,18.12,0,0,1,33.8,26.7,1,1,0,0,0,33.92,28c3,2.85,5.94,5.7,8.86,8.59,1.56,1.55,3.51,2.8,4.13,5.11v1.34a5,5,0,0,1-3.51,3.67H41.9a14.22,14.22,0,0,1-2.44-1.53c-3.83-3.64-7.6-7.33-11.37-11a1.18,1.18,0,0,0-1.6-.28,17.76,17.76,0,0,1-10,2A17.76,17.76,0,0,1,.91,23.5C.51,22.15.3,20.75,0,19.36Q0,18,0,16.69c.06-.32.13-.65.19-1C1.36,8.57,5.25,3.59,12.09,1.08A38.92,38.92,0,0,1,16.53,0ZM18,28.81a10.87,10.87,0,0,0,10.9-10.7A11,11,0,0,0,18.16,7.19,11,11,0,0,0,7.2,18,10.91,10.91,0,0,0,18,28.81Z"/></g></g></g></svg>