<svg xmlns="http://www.w3.org/2000/svg" viewBox="0 0 61.48 59.6"><defs><style>.cls-1{fill:#f26748;}.cls-2{fill:#fff;}</style></defs><title>Asset 1</title><g id="Layer_2" data-name="Layer 2"><g id="Layer_1-2" data-name="Layer 1"><g id="u7cdXk.tif"><path class="cls-1" d="M52,8.54A30.19,30.19,0,0,0,32.64.33,8.52,8.52,0,0,1,31.22,0h-.89L26,.66A30.11,30.11,0,0,0,.82,24.06C.46,25.74.28,27.44,0,29.13v1.19c.22,1.45.43,2.91.66,4.36A30,30,0,0,0,26.79,59.36c10.53,1.16,19.62-1.87,26.84-9.64A28.93,28.93,0,0,0,52,8.54ZM44.4,34.65c0,2.28-1.72,3.76-4.25,3.79-4.22,0-8.43.07-12.63,0-1.54,0-2.06.44-1.87,1.92a21,21,0,0,1,0,2.53L11.37,34.61l14.29-8.27c0,1.43,0,2.35,0,3.28s.21,1.19,1.08,1.19c3,0,5.95,0,8.91,0,1,0,1.16-.47,1.15-1.29,0-2.32,0-4.65,0-7s1.22-3.82,3.06-4.18A3.75,3.75,0,0,1,44.4,22Q44.47,28.34,44.4,34.65Z"/><path class="cls-2" d="M44.4,22q.06,6.31,0,12.62c0,2.28-1.72,3.76-4.25,3.79-4.22,0-8.43.07-12.63,0-1.54,0-2.06.44-1.87,1.92a21,21,0,0,1,0,2.53L11.37,34.61l14.29-8.27c0,1.43,0,2.35,0,3.28s.21,1.19,1.08,1.19c3,0,5.95,0,8.91,0,1,0,1.16-.47,1.15-1.29,0-2.32,0-4.65,0-7s1.22-3.82,3.06-4.18A3.75,3.75,0,0,1,44.4,22Z"/></g></g></g></svg>