<svg xmlns="http://www.w3.org/2000/svg" viewBox="0 0 35.64 35.93"><defs><style>.cls-1{fill:#fff;}</style></defs><title>Asset 1</title><g id="Layer_2" data-name="Layer 2"><g id="Layer_1-2" data-name="Layer 1"><g id="hGDsmo.tif"><path class="cls-1" d="M17.74,35.93h7.2c2,0,2.28-.27,2.28-2.29,0-4.1,0-8.21,0-12.31,0-1.8.51-2.28,2.28-2.3,1.59,0,3.18,0,4.76,0,.47,0,1.19-.32,1.31-.66a1.77,1.77,0,0,0-.36-1.53q-8-8.1-16.08-16.12a1.5,1.5,0,0,0-2.51,0Q8.54,8.76.48,16.88A1.63,1.63,0,0,0,0,18.26,1.72,1.72,0,0,0,1.34,19c1.47.09,2.94,0,4.41,0,2.22,0,2.63.42,2.63,2.66,0,4.14,0,8.29,0,12.43,0,1.44.37,1.8,1.79,1.81C12.7,35.94,15.22,35.93,17.74,35.93Z"/></g></g></g></svg>