<svg xmlns="http://www.w3.org/2000/svg" viewBox="0 0 66.97 66.97"><defs><style>.cls-1{fill:#f39477;}</style></defs><title>Asset 5</title><g id="Layer_2" data-name="Layer 2"><g id="Layer_1-2" data-name="Layer 1"><g id="hGDsmo.tif"><path class="cls-1" d="M67,1.45V67H1.45A3,3,0,0,1,0,64.14Q0,33.49,0,2.83C0,.79.79,0,2.83,0Q33.49,0,64.14,0A3,3,0,0,1,67,1.45ZM32.87,50.2h7.2c2,0,2.28-.27,2.28-2.29,0-4.1,0-8.21,0-12.31,0-1.8.51-2.28,2.28-2.3,1.59,0,3.18,0,4.76,0,.47,0,1.19-.32,1.31-.66a1.77,1.77,0,0,0-.36-1.53q-8-8.1-16.08-16.12a1.5,1.5,0,0,0-2.51,0Q23.67,23,15.61,31.15a1.63,1.63,0,0,0-.43,1.38,1.72,1.72,0,0,0,1.29.71c1.47.09,2.94,0,4.41,0,2.22,0,2.63.42,2.63,2.66,0,4.14,0,8.29,0,12.43,0,1.44.37,1.8,1.79,1.81C27.83,50.21,30.35,50.2,32.87,50.2Z"/></g></g></g></svg>