<svg xmlns="http://www.w3.org/2000/svg" viewBox="0 0 182.8 137.7"><defs><style>.cls-1{fill:#f0764e;}</style></defs><title>Asset 2</title><g id="Layer_2" data-name="Layer 2"><g id="Layer_1-2" data-name="Layer 1"><path class="cls-1" d="M129.9,68.7,119.8,78.9c-5.1,5.1-9.8,9.8-13.9,14l-4.4,4.4c-3.8,3.8-7.1,7.2-10.1,10.2-1.6,1.5-3.1,3-4.4,4.4C70.7,128,69.3,129,68.5,129.6A43.29,43.29,0,0,1,0,94.5,42.69,42.69,0,0,1,8.4,68.9,43.2,43.2,0,0,1,43.2.1,44.43,44.43,0,0,1,72.3,11.2l.3.2.2.2,4.9,4.9,9.4,9.4L76.9,36.1,62.7,21.8h-.1a30.41,30.41,0,0,0-19.3-7.3A28.74,28.74,0,0,0,30,68.8,29.14,29.14,0,0,0,14.4,94.5a28.88,28.88,0,0,0,45.7,23.3c.9-.7,8.1-7.6,16.7-16.2,1.4-1.5,2.9-2.9,4.4-4.4,3.4-3.3,6.9-6.9,10.2-10.2,1.5-1.5,3-2.9,4.4-4.4,7.8-7.9,13.9-13.9,13.9-13.9L95.9,54.9c3.5-3.4,6.9-6.9,10.2-10.1l13.7,13.7Z"/><path class="cls-1" d="M174.4,68.9a42.69,42.69,0,0,1,8.4,25.6,43.28,43.28,0,0,1-43.2,43.2,44.63,44.63,0,0,1-29.1-11.1l-.1-.2-.1-.1-5.1-5.1-9.4-9.4c3-2.9,6.3-6.3,10.2-10.1l9.3,9.3,4.9,4.8v.1h.1a30.06,30.06,0,0,0,19.3,7.3,28.8,28.8,0,0,0,13.2-54.4,28.8,28.8,0,1,0-30-49c-.9.7-8.1,7.7-16.6,16.2-1.5,1.5-3,2.9-4.5,4.5-3.4,3.3-6.9,6.8-10.2,10.1L87.1,55c-7.8,7.9-13.9,14-13.9,14L87,82.7c-3.5,3.4-6.9,6.9-10.2,10.2L52.9,69,63,58.8,76.9,44.9c1.5-1.5,3-3,4.4-4.5,3.9-3.8,7.2-7.2,10.2-10.1L96,25.8C112.2,9.7,113.6,8.7,114.4,8.1a43.25,43.25,0,0,1,60,60.8Z"/></g></g></svg>