<svg xmlns="http://www.w3.org/2000/svg" viewBox="0 0 145.6 18"><defs><style>.cls-1{fill:#fff;}</style></defs><title>Asset 3</title><g id="Layer_2" data-name="Layer 2"><g id="Layer_1-2" data-name="Layer 1"><path class="cls-1" d="M8.9,17.9a7.67,7.67,0,0,1-3.4-.7,9.1,9.1,0,0,1-2.9-1.9A8.12,8.12,0,0,1,.7,12.4,9.83,9.83,0,0,1,0,9,7.67,7.67,0,0,1,.7,5.6,7.73,7.73,0,0,1,2.6,2.8,7.69,7.69,0,0,1,5.5.9,9.6,9.6,0,0,1,8.8.3a10.16,10.16,0,0,1,3.4.6,8.12,8.12,0,0,1,2.9,1.9L13.6,4.3a6.17,6.17,0,0,0-2.2-1.5,7.42,7.42,0,0,0-2.5-.5,7,7,0,0,0-2.5.5A5.41,5.41,0,0,0,4.2,4.3a6.57,6.57,0,0,0-2,4.8,8,8,0,0,0,.5,2.6,5.41,5.41,0,0,0,1.5,2.2,8.55,8.55,0,0,0,2.2,1.5,7.51,7.51,0,0,0,2.6.5,8,8,0,0,0,2.6-.5,6.17,6.17,0,0,0,2.2-1.5l1.5,1.5a8.12,8.12,0,0,1-2.9,1.9A10.73,10.73,0,0,1,8.9,17.9Z"/><path class="cls-1" d="M25,17.9a7.67,7.67,0,0,1-3.4-.7,9,9,0,0,1-4.7-4.7,8,8,0,0,1-.7-3.4,8.42,8.42,0,0,1,.7-3.5A9,9,0,0,1,21.6.9,8,8,0,0,1,25,.2a8.42,8.42,0,0,1,3.5.7,9,9,0,0,1,4.7,4.7,8.12,8.12,0,0,1,.7,3.5,7.67,7.67,0,0,1-.7,3.4,9,9,0,0,1-4.7,4.7A8.42,8.42,0,0,1,25,17.9ZM25,2.3a7.51,7.51,0,0,0-2.6.5,7.71,7.71,0,0,0-2.1,1.4,6,6,0,0,0-1.4,2.1,5.75,5.75,0,0,0-.5,2.6,7.51,7.51,0,0,0,.5,2.6,7.71,7.71,0,0,0,1.4,2.1A6,6,0,0,0,22.4,15a5.75,5.75,0,0,0,2.6.5,7.51,7.51,0,0,0,2.6-.5,7.71,7.71,0,0,0,2.1-1.4,6,6,0,0,0,1.4-2.1,5.75,5.75,0,0,0,.5-2.6,7.51,7.51,0,0,0-.5-2.6,7.71,7.71,0,0,0-1.4-2.1,6,6,0,0,0-2.1-1.4A7.08,7.08,0,0,0,25,2.3Z"/><path class="cls-1" d="M64,7.5V17.9H61.9V7.5a4.48,4.48,0,0,0-.4-2,6.19,6.19,0,0,0-1.1-1.7,3.86,3.86,0,0,0-1.7-1.1,5.2,5.2,0,0,0-4,0,4.57,4.57,0,0,0-1.6,1.1A5.71,5.71,0,0,0,52,5.4a6.53,6.53,0,0,0-.5,2V18H49.4V7.4a4.55,4.55,0,0,0-.5-2,9.06,9.06,0,0,0-1.1-1.6,5.72,5.72,0,0,0-1.6-1.1,4.48,4.48,0,0,0-2-.4,4.77,4.77,0,0,0-2,.4,4.57,4.57,0,0,0-1.6,1.1,5.71,5.71,0,0,0-1.1,1.6,6.53,6.53,0,0,0-.5,2V18H36.9V.3H39V2.5A7.33,7.33,0,0,1,41.3.9,6.71,6.71,0,0,1,44.1.3a6.3,6.3,0,0,1,3.6,1,8.07,8.07,0,0,1,2.6,2.6,8.07,8.07,0,0,1,2.6-2.6,6.53,6.53,0,0,1,3.6-1,6.39,6.39,0,0,1,2.8.6,6.34,6.34,0,0,1,2.3,1.6,7.33,7.33,0,0,1,1.6,2.3A4.12,4.12,0,0,1,64,7.5Z"/><path class="cls-1" d="M94.1,7.5V17.9H92V7.5a4.48,4.48,0,0,0-.4-2,6.19,6.19,0,0,0-1.1-1.7,3.86,3.86,0,0,0-1.7-1.1,5.2,5.2,0,0,0-4,0,4.57,4.57,0,0,0-1.6,1.1,5.71,5.71,0,0,0-1.1,1.6,6.53,6.53,0,0,0-.5,2V18H79.5V7.4a4.55,4.55,0,0,0-.5-2,9.06,9.06,0,0,0-1.1-1.6,5.72,5.72,0,0,0-1.6-1.1,4.48,4.48,0,0,0-2-.4,4.77,4.77,0,0,0-2,.4,4.57,4.57,0,0,0-1.6,1.1,5.71,5.71,0,0,0-1.1,1.6,6.53,6.53,0,0,0-.5,2V18H67V.3h2.1V2.5A7.33,7.33,0,0,1,71.4.9,6.71,6.71,0,0,1,74.2.3a6.3,6.3,0,0,1,3.6,1,8.07,8.07,0,0,1,2.6,2.6A8.07,8.07,0,0,1,83,1.3a6.53,6.53,0,0,1,3.6-1,6.39,6.39,0,0,1,2.8.6,6.34,6.34,0,0,1,2.3,1.6,7.33,7.33,0,0,1,1.6,2.3A4.12,4.12,0,0,1,94.1,7.5Z"/><path class="cls-1" d="M105.9,17.9a7.67,7.67,0,0,1-3.4-.7,9,9,0,0,1-4.7-4.7,8,8,0,0,1-.7-3.4,8.42,8.42,0,0,1,.7-3.5A9,9,0,0,1,102.5.9a8,8,0,0,1,3.4-.7,8.42,8.42,0,0,1,3.5.7,9,9,0,0,1,4.7,4.7,8.12,8.12,0,0,1,.7,3.5,7.67,7.67,0,0,1-.7,3.4,9,9,0,0,1-4.7,4.7A8.42,8.42,0,0,1,105.9,17.9Zm0-15.6a7.51,7.51,0,0,0-2.6.5,7.71,7.71,0,0,0-2.1,1.4,6,6,0,0,0-1.4,2.1,5.75,5.75,0,0,0-.5,2.6,7.51,7.51,0,0,0,.5,2.6,7.71,7.71,0,0,0,1.4,2.1,6,6,0,0,0,2.1,1.4,5.75,5.75,0,0,0,2.6.5,7.51,7.51,0,0,0,2.6-.5,7.71,7.71,0,0,0,2.1-1.4,6,6,0,0,0,1.4-2.1,5.75,5.75,0,0,0,.5-2.6,7.51,7.51,0,0,0-.5-2.6,7.71,7.71,0,0,0-1.4-2.1,6,6,0,0,0-2.1-1.4A7.08,7.08,0,0,0,105.9,2.3Z"/><path class="cls-1" d="M132.4,17.9h-2.1V7.5a4.48,4.48,0,0,0-.4-2,6.19,6.19,0,0,0-1.1-1.7,3.86,3.86,0,0,0-1.7-1.1,4.48,4.48,0,0,0-2-.4,4.77,4.77,0,0,0-2,.4,4.57,4.57,0,0,0-1.6,1.1,5.71,5.71,0,0,0-1.1,1.6,6.53,6.53,0,0,0-.5,2V18h-2.1V.3h2.1V2.5A7.33,7.33,0,0,1,122.2.9,6.71,6.71,0,0,1,125,.3a6.39,6.39,0,0,1,2.8.6,6.34,6.34,0,0,1,2.3,1.6,7.33,7.33,0,0,1,1.6,2.3,6.71,6.71,0,0,1,.6,2.8V17.9Z"/><path class="cls-1" d="M143,3.7a2.41,2.41,0,0,0-1-1,4.19,4.19,0,0,0-1.5-.4,2.73,2.73,0,0,0-2.8,2.8,2.35,2.35,0,0,0,.6,1.7A4.44,4.44,0,0,0,140.8,8a14.24,14.24,0,0,1,1.6.5,3.77,3.77,0,0,1,1.5.9,5.26,5.26,0,0,1,1.2,1.4,4.77,4.77,0,0,1,.5,2.2,4.06,4.06,0,0,1-.4,1.9,4.18,4.18,0,0,1-1.1,1.5,4.36,4.36,0,0,1-1.6,1,4.33,4.33,0,0,1-1.9.4V15.7a2.79,2.79,0,0,0,2-.8,2.44,2.44,0,0,0,.8-2,2.79,2.79,0,0,0-.6-1.8,4.44,4.44,0,0,0-2.5-1.2,14.24,14.24,0,0,1-1.6-.5,3.77,3.77,0,0,1-1.5-.9,4.86,4.86,0,0,1-1.1-1.4,4.77,4.77,0,0,1-.5-2.2A4.06,4.06,0,0,1,136,3a5.71,5.71,0,0,1,1.1-1.6,4.36,4.36,0,0,1,1.6-1,4.33,4.33,0,0,1,1.9-.4,4.84,4.84,0,0,1,2.6.7A3.92,3.92,0,0,1,145,2.5Zm-2.6,14.2a5.83,5.83,0,0,1-2.6-.6,4.24,4.24,0,0,1-1.8-1.7l1.8-1.1a2.66,2.66,0,0,0,1.1,1,4.19,4.19,0,0,0,1.5.4Z"/></g></g></svg>